# xmcd
#
# Track frame offsets:
#	150
#	2071
#	28944
#	69112
#	116775
#
# Disc length: 1889 seconds
#
# Revision: 1
# Processed by: cddbd v1.5.2PL0 Copyright (c) Steve Scherf et al.
# Submitted via: audiograbber 1.83.01
#
DISCID=39075f05
DTITLE=Grateful Dead - 92-12-11 Oakland Coliseum Arena, Oakland CA
DYEAR=1900
DGENRE=
TTITLE0=Space ends
TTITLE1=The Wheel
TTITLE2=Stella Blue
TTITLE3=Sugar Magnolia
TTITLE4=US Blues
EXTD=
EXTT0=
EXTT1=
EXTT2=
EXTT3=
EXTT4=
PLAYORDER=
